<?xml version="1.0" encoding="utf-8"?>
<!-- Generator: Adobe Illustrator 16.0.0, SVG Export Plug-In . SVG Version: 6.00 Build 0)  -->
<!DOCTYPE svg PUBLIC "-//W3C//DTD SVG 1.1//EN" "http://www.w3.org/Graphics/SVG/1.1/DTD/svg11.dtd">
<svg version="1.1" id="Vrstva_1" xmlns="http://www.w3.org/2000/svg" xmlns:xlink="http://www.w3.org/1999/xlink" x="0px" y="0px"
	 width="354px" height="112.5px" viewBox="0 0 354 112.5" enable-background="new 0 0 354 112.5" xml:space="preserve">
<polygon points="106.376,37.863 130.412,37.863 130.412,101.921 150.883,101.921 150.883,37.863 175.149,37.863 175.149,21.302 
	106.376,21.302 "/>
<rect x="180.32" y="21.417" width="20.472" height="80.504"/>
<g>
	<defs>
		<rect id="SVGID_1_" width="354" height="112.5"/>
	</defs>
	<clipPath id="SVGID_2_">
		<use xlink:href="#SVGID_1_"  overflow="visible"/>
	</clipPath>
	<path clip-path="url(#SVGID_2_)" d="M257.071,78.531l18.313-46.619c-5.382-6.826-14.598-10.495-26.983-10.495h-35.077v80.504
		h20.471V79.265h14.606C251.493,79.265,254.384,79.013,257.071,78.531 M233.795,63.164V37.518h13.571
		c8.97,0,14.146,4.255,14.146,12.651c0,8.51-5.176,12.995-14.146,12.995H233.795z"/>
	<polygon clip-path="url(#SVGID_2_)" points="299.336,63.703 317.217,57.51 303.17,21.36 282.008,21.36 250.382,101.864 
		271.428,101.864 292.014,42.636 	"/>
	<polygon clip-path="url(#SVGID_2_)" points="307.118,86.093 312.6,101.864 334.451,101.864 325.809,79.619 	"/>
	<path clip-path="url(#SVGID_2_)" d="M306.757,60.76l1.024,2.951l-4.984,1.732c-1.313,0.445-1.924,2.111-1.354,3.726l1.336,3.852
		l-6.754,2.345l1.222,3.52l6.755-2.345l1.347,3.872c0.554,1.606,2.054,2.529,3.354,2.079l5.007-1.738l0.99,2.889l4.128-1.41
		l-1.011-2.907l16.465-5.711c1.3-0.451,1.912-2.12,1.354-3.729l-3.902-11.241c-0.558-1.608-2.053-2.529-3.368-2.086l-16.467,5.714
		l-1.008-2.941L306.757,60.76z"/>
	<path clip-path="url(#SVGID_2_)" d="M297.667,72.439c-0.736-0.229-1.747-0.333-2.598-0.264l-0.453,0.037l1.803,5.245l1.803,5.244
		l0.248-0.154c1.74-1.087,2.751-2.658,2.848-4.423c0.093-1.683-0.744-3.676-1.997-4.76
		C299.039,73.122,298.017,72.549,297.667,72.439"/>
	<path clip-path="url(#SVGID_2_)" d="M290.755,73.178c-0.858-0.109-0.979-0.098-1.236,0.122c-0.208,0.179-0.241,0.299-0.366,1.275
		c-0.227,1.763-0.112,3.223,0.373,4.803c0.579,1.889,1.405,3.236,2.871,4.687c0.441,0.437,0.523,0.502,0.677,0.539
		c0.209,0.049,0.385,0.027,0.537-0.067c0.174-0.106,1.232-1.229,1.313-1.392c0.097-0.198,0.08-0.534-0.036-0.703
		c-0.053-0.077-0.324-0.375-0.602-0.661c-0.947-0.976-1.492-1.838-1.896-3c-0.267-0.768-0.408-1.432-0.452-2.12
		c-0.04-0.635-0.02-1.028,0.097-1.923c0.054-0.414,0.091-0.812,0.083-0.88c-0.021-0.176-0.205-0.407-0.397-0.499
		C291.626,73.313,291.211,73.235,290.755,73.178"/>
	<path clip-path="url(#SVGID_2_)" d="M286.72,70.523c-0.396-0.102-0.798-0.186-0.9-0.188c-0.208-0.003-0.467,0.138-0.597,0.323
		c-0.188,0.27-0.626,2.09-0.776,3.228c-0.685,5.17,1.026,10.411,4.584,14.048c0.816,0.835,2.188,1.949,2.521,2.048
		c0.189,0.056,0.468,0.007,0.622-0.11c0.059-0.045,0.338-0.394,0.621-0.774c0.557-0.753,0.605-0.86,0.543-1.182
		c-0.042-0.212-0.136-0.315-0.626-0.699c-1.817-1.422-2.911-2.699-3.904-4.563c-0.403-0.758-0.686-1.436-0.958-2.306
		c-0.295-0.941-0.451-1.681-0.564-2.671c-0.214-1.874-0.071-3.51,0.489-5.632c0.174-0.658,0.172-0.826-0.014-1.077
		C287.603,70.753,287.588,70.747,286.72,70.523"/>
</g>
<g>
	<defs>
		<rect id="SVGID_3_" width="354" height="112.5"/>
	</defs>
	<clipPath id="SVGID_4_">
		<use xlink:href="#SVGID_3_"  overflow="visible"/>
	</clipPath>
	<path clip-path="url(#SVGID_4_)" d="M81.288,21.065H70.011c-0.934,1.584-2.232,2.854-3.149,3.633v1.849
		c0.245-0.382,0.518-0.749,0.848-1.079c3.3-3.301,10.117-2.486,10.117-2.486s0.815,6.816-2.486,10.117
		c-2.299,2.298-6.438,2.329-8.479,2.184v3.704c0.245-0.382,0.518-0.749,0.848-1.079c3.3-3.3,10.117-2.486,10.117-2.486
		s0.815,6.816-2.486,10.117c-2.299,2.298-6.438,2.33-8.479,2.185v3.704c0.245-0.383,0.518-0.749,0.848-1.079
		c3.3-3.301,10.117-2.487,10.117-2.487s0.815,6.817-2.486,10.117c-2.299,2.3-6.438,2.33-8.479,2.187v3.704
		c0.245-0.382,0.518-0.749,0.848-1.079c3.3-3.302,10.117-2.487,10.117-2.487s0.815,6.816-2.486,10.117
		c-2.299,2.299-6.438,2.33-8.479,2.185v3.703c0.245-0.382,0.518-0.749,0.848-1.079c3.3-3.3,10.117-2.485,10.117-2.485
		s0.441,3.726-0.661,7.003c-0.094,0.277-0.199,0.552-0.316,0.822c-0.005,0.011-0.009,0.023-0.014,0.034
		c-0.108,0.244-0.229,0.481-0.357,0.715c-0.02,0.034-0.036,0.072-0.056,0.107c-0.121,0.211-0.258,0.413-0.399,0.611
		c-0.034,0.048-0.062,0.1-0.097,0.146c-0.179,0.239-0.373,0.466-0.586,0.679c-2.299,2.298-6.438,2.329-8.479,2.185h-2.188
		c-2.041,0.145-6.181,0.113-8.479-2.185c-0.16-0.16-0.303-0.335-0.444-0.511c-0.1-0.128-0.198-0.258-0.29-0.391
		c-2.426-3.497-1.752-9.216-1.752-9.216s6.816-0.814,10.117,2.485c0.33,0.33,0.603,0.697,0.848,1.079v-3.703
		c-2.041,0.146-6.181,0.114-8.479-2.185c-3.3-3.301-2.486-10.117-2.486-10.117s6.816-0.814,10.117,2.487
		c0.33,0.33,0.603,0.697,0.848,1.079v-3.704c-2.041,0.144-6.181,0.112-8.479-2.187c-3.3-3.3-2.486-10.117-2.486-10.117
		s6.816-0.814,10.117,2.487c0.33,0.33,0.603,0.697,0.848,1.079v-3.704c-2.041,0.145-6.181,0.113-8.479-2.185
		c-3.3-3.301-2.486-10.117-2.486-10.117s6.816-0.814,10.117,2.486c0.33,0.33,0.603,0.697,0.848,1.079v-3.704
		c-2.041,0.145-6.181,0.114-8.479-2.184c-3.3-3.301-2.486-10.117-2.486-10.117s6.816-0.815,10.117,2.486
		c0.33,0.33,0.603,0.697,0.848,1.079v-1.892c-0.897-0.794-2.159-2.06-3.089-3.59H48.571H28.279v46.283
		c0,21.091,14.363,34.429,36.822,34.429c22.343,0,36.365-13.338,36.365-34.429V21.065H81.288z"/>
</g>
</svg>
